<svg width="57" height="51" viewBox="0 0 57 51" fill="none" xmlns="http://www.w3.org/2000/svg">
<path d="M21.6606 24.2514C24.9317 24.4838 28.2264 23.1245 28.3677 19.5684C28.4323 16.2431 28.3301 10.719 28.501 5.07279C28.5013 5.07199 28.501 5.07279 28.501 5.07279C25.3301 4.71098 21.4718 5.12881 21.4438 10.9767C21.4357 12.595 21.8541 13.4162 21.6606 24.2514Z" fill="#1A1D21"/>
<path d="M21.6607 24.2515C11.2702 20.9037 7.73896 11.8444 9.40213 6.20258C9.40213 6.20258 7.49802 10.3756 6.95157 14.7487C6.62305 17.3755 9.23988 21.9156 12.6363 22.985C17.0729 24.3823 21.6607 24.2515 21.6607 24.2515Z" stroke="#1A1D21" stroke-width="0.318521" stroke-miterlimit="10"/>
<path d="M21.3702 24.1681C12.7828 19.3746 10.2252 11.897 9.11157 6.11914" stroke="#1A1D21" stroke-width="0.318521" stroke-miterlimit="10"/>
<path d="M21.3701 24.168C12.7779 23.9248 4.97597 17.5138 9.11152 6.11909" stroke="#1A1D21" stroke-width="0.318521" stroke-miterlimit="10"/>
<path d="M26.5407 34.0066C26.7502 30.7782 25.3476 27.514 21.7451 27.3464C18.3769 27.2564 12.7832 27.3137 7.06374 27.1004C7.06292 27.1001 7.06374 27.1004 7.06374 27.1004C6.72234 30.2288 7.17593 34.042 13.0986 34.1159C14.7375 34.1366 15.5659 33.7299 26.5407 34.0066Z" fill="#1A1D21"/>
<path d="M35.3419 26.6982C32.0707 26.4658 28.776 27.8251 28.6347 31.3812C28.5702 34.7065 28.6723 40.2306 28.5014 45.8768C28.5014 45.8768 28.5012 45.8776 28.5014 45.8768C31.6724 46.2386 35.5306 45.8208 35.5587 39.9729C35.5668 38.3546 35.1483 37.5334 35.3419 26.6982Z" fill="#1A1D21"/>
<path d="M35.3417 26.6981C45.7322 30.0459 49.2635 39.1052 47.6003 44.7471C47.6003 44.7471 49.5044 40.574 50.0508 36.201C50.3794 33.5742 47.7625 29.0341 44.3661 27.9646C39.9298 26.5665 35.3417 26.6981 35.3417 26.6981Z" stroke="#1A1D21" stroke-width="0.318521" stroke-miterlimit="10"/>
<path d="M35.3416 26.6981C43.9289 31.4916 46.4865 38.9692 47.6001 44.747" stroke="#1A1D21" stroke-width="0.318521" stroke-miterlimit="10"/>
<path d="M28.0268 19.4705C27.8173 22.6989 29.2199 25.9631 32.8224 26.1307C36.1905 26.2207 41.7843 26.1634 47.5037 26.3767C47.5037 26.3767 47.5046 26.377 47.5037 26.3767C47.8451 23.2483 47.3915 19.4351 41.4689 19.3612C39.83 19.3405 39.0016 19.7472 28.0268 19.4705Z" fill="#1A1D21"/>
</svg>
